# xmcd CD database file
#
# Track frame offsets:
#	150
#	24710
#	49377
#	77777
#	99902
#	120895
#	145385
#	174955
#	203822
#	223425
#	250457
#	276460
#
# Disc length: 3972 seconds
#
# Revision: 2
# Processed by: cddbd v1.4b41PL1 Copyright (c) Steve Scherf et al.
# Submitted via: Feurio! 1.50.2ß - http://www.feurio.com
#
DISCID=b40f820c
DTITLE=Etta James - Heart Of A Woman
DYEAR=1900
DGENRE=
TTITLE0=You Don't Know What Love Is
TTITLE1=Good Morning Heartache
TTITLE2=My Old Flame
TTITLE3=Say It Isn't So
TTITLE4=At Last
TTITLE5=Tenderly
TTITLE6=I Only Have Eyes For You
TTITLE7=I Got It Bad And It Ain't Good
TTITLE8=You Go To My Head
TTITLE9=Sunday Kind Of Love
TTITLE10=If It's The Last Thing I Do
TTITLE11=Only Women Bleed
EXTD=
EXTT0=
EXTT1=
EXTT2=
EXTT3=
EXTT4=
EXTT5=
EXTT6=
EXTT7=
EXTT8=
EXTT9=
EXTT10=
EXTT11=
PLAYORDER=
